<svg fill="#FFFFFF" xmlns="http://www.w3.org/2000/svg"  viewBox="0 0 48 48" width="48px" height="48px"><path d="m38.5,6H9.5c-1.93,0-3.5,1.57-3.5,3.5v29c0,1.93,1.57,3.5,3.5,3.5h29c1.93,0,3.5-1.57,3.5-3.5V9.5c0-1.93-1.57-3.5-3.5-3.5Zm-14.1,25.83c2.62,0,4.65-1.17,5.38-3.29.07-.21.27-.37.5-.37h3.86c.16,0,.28.15.26.31-.75,4.5-4.76,7.52-10,7.52-6.66,0-10.8-4.6-10.8-11.99s4.13-12.01,10.79-12.01c5.21,0,9.4,3.38,10.01,8.05.02.16-.1.3-.26.3h-3.81c-.24,0-.44-.17-.5-.4-.69-2.38-2.76-3.78-5.44-3.78-3.8,0-6.11,2.9-6.11,7.82s2.31,7.84,6.12,7.84Z"/></svg>