<svg fill="#FFFFFF" xmlns="http://www.w3.org/2000/svg"  viewBox="0 0 24 24" width="48px" height="48px"><path d="M19,3H5C3.9,3,3,3.9,3,5v14c0,1.1,0.9,2,2,2h14c1.1,0,2-0.9,2-2V5C21,3.9,20.1,3,19,3z M9.79,9.302H8.674v2.512H9.79 c0.744,0,0.93-0.558,0.93-1.209C10.721,9.953,10.442,9.302,9.79,9.302z M9.79,13.116H8.674V16H7V8h2.698 c2.326,0,2.605,2.14,2.605,2.605C12.302,12.465,11,13.116,9.79,13.116z M16.835,11.6c-0.074-0.008-0.473-0.047-0.551-0.047 c-0.637,0-0.842,0.402-0.92,0.598V16H13.7v-6h1.564l0.047,0.686c0.125-0.254,0.459-0.803,1.084-0.803 c0.274,0,0.402,0.053,0.457,0.076L16.835,11.6z"/></svg>