<svg fill="#FFFFFF" xmlns="http://www.w3.org/2000/svg"  viewBox="0 0 50 50" width="50px" height="50px"><path d="M 6 3 L 6 47 L 42 47 L 42 24.111328 L 40 25.734375 L 40 45 L 8 45 L 8 5 L 40 5 L 40 17.658203 L 42 16.201172 L 42 3 L 6 3 z M 10 7 L 10 39 L 10.40625 39 L 12.921875 39 L 12.933594 39 C 13.041594 38.751 13.168828 38.489562 13.298828 38.226562 C 13.417828 37.989562 13.548594 37.748859 13.683594 37.505859 C 13.742594 37.399859 13.798328 37.295453 13.861328 37.189453 C 14.899328 35.420453 16.412906 33.647172 18.878906 33.076172 C 18.911906 33.068172 18.945516 33.061688 18.978516 33.054688 L 24.177734 29.267578 L 23.103516 28.933594 L 17.445312 26.105469 C 17.091313 25.929469 16.663422 25.978422 16.357422 26.232422 L 12 29.863281 L 12 27.46875 L 17.138672 23.1875 L 26.193359 27.714844 L 28.013672 26.388672 L 32.175781 23.337891 C 32.184781 23.337891 32.190219 23.339844 32.199219 23.339844 L 35.087891 21.236328 C 30.780891 21.677328 29.887844 20.799281 29.714844 20.488281 C 29.309844 19.762281 30.263766 18.234391 30.759766 17.650391 C 30.985766 17.387391 31.058125 17.025313 30.953125 16.695312 C 30.848125 16.365313 30.579187 16.113297 30.242188 16.029297 C 27.390187 15.315297 27.850703 12.745188 27.970703 12.242188 C 28.045703 11.943188 27.977109 11.626766 27.787109 11.384766 C 27.598109 11.141766 27.308 11 27 11 C 24.529 11 23.587563 9.88 23.226562 9 L 36 9 L 36 20.572266 L 38 19.115234 L 38 7 L 10 7 z M 46.134766 16.027344 C 45.881766 15.987594 45.614125 16.044531 45.390625 16.207031 L 19.628906 34.970703 C 19.491906 34.973703 19.352844 34.993391 19.214844 35.025391 C 14.999844 36.000391 14 42 14 42 C 19.569 41.494 21.655 39.642 22 38 L 46.609375 17.792969 C 47.018375 17.458969 47.101109 16.859734 46.787109 16.427734 C 46.624609 16.204234 46.387766 16.067094 46.134766 16.027344 z M 38 27.357422 L 36 28.982422 L 34.931641 29.849609 L 33.226562 31.232422 L 36 32.617188 L 36 35.382812 L 31.058594 32.910156 L 23.642578 39 L 23.658203 39 L 38 39 L 38 27.357422 z"/></svg>